<svg xmlns="http://www.w3.org/2000/svg" version="1.1" xmlns:xlink="http://www.w3.org/1999/xlink" xmlns:svgjs="http://svgjs.dev/svgjs" width="100%" height="100%" viewBox="0 0 1000 600"><rect width="1000" height="600" x="0" y="0" fill="#ffffff"/><g><rect width="333.3333333333333" height="333.3333333333333" rx="13.333333333333334" ry="13.333333333333334" y="187.1468859661706" fill="#4884ee" transform="matrix(0.7579216318408009,0,0,0.7579216318408009,0,31.837024343842245)" x="164.92466735839844"/><path d="M340.57942478059 428.813550711656L280.1627599430605 428.813550711656Q277.81156953805316 428.813550711656 276.53180767203656 427.41474123019594Q275.22228390215906 426.0159317487359 275.22228390215906 423.87307467075453L275.22228390215906 423.87307467075453L275.22228390215906 283.9623646208895Q275.22228390215906 281.6111742158822 276.53180767203656 280.2123647344222Q277.81156953805316 278.81355525296215 280.1627599430605 278.81355525296215L280.1627599430605 278.81355525296215L338.8829962605214 278.81355525296215Q354.9544243453814 278.81355525296215 365.1329954657928 284.05165033247204Q375.3115665862042 289.3195073158429 380.1329950116622 298.3076022818202Q384.9544234371202 307.3254591516583 384.9544234371202 318.4564111956169L384.9544234371202 318.4564111956169Q384.9544234371202 327.2361728345682 382.0675187626176 333.5754583569297Q379.1508521842541 339.8849819754303 374.8651380282914 343.84331518892367Q370.57942387232873 347.801648402417 366.5318049472529 349.9445054803983L366.5318049472529 349.9445054803983Q374.8651380282914 354.021886309335 381.4127568776788 363.2480765061991Q387.96037572706626 372.44450479920243 387.96037572706626 385.5397424979772L387.96037572706626 385.5397424979772Q387.96037572706626 397.3254564268746 382.60323303211294 407.17664660481665Q377.24609033715956 417.0278367827586 366.62109065883544 422.9206937472073Q356.0258528843721 428.813550711656 340.57942478059 428.813550711656L340.57942478059 428.813550711656ZM296.23418802792054 359.3790290042884L296.23418802792054 411.4623607607793L337.81156772153076 411.4623607607793Q351.5318054013835 411.4623607607793 359.03180517431815 403.96236098784465Q366.5318049472529 396.4623612149099 366.5318049472529 385.5397424979772L366.5318049472529 385.5397424979772Q366.5318049472529 374.17069522313176 359.03180517431815 366.7897430656405Q351.5318054013835 359.3790290042884 337.81156772153076 359.3790290042884L337.81156772153076 359.3790290042884L296.23418802792054 359.3790290042884ZM296.23418802792054 296.16474520383883L296.23418802792054 342.2361723804376L335.6687106435494 342.2361723804376Q349.38894832340213 342.2361723804376 356.44251953842405 335.9266487619371Q363.5258526573068 329.5873632395756 363.5258526573068 318.66474452264293L363.5258526573068 318.66474452264293Q363.5258526573068 307.7421258057102 356.44251953842405 301.968316456705Q349.38894832340213 296.16474520383883 335.6687106435494 296.16474520383883L335.6687106435494 296.16474520383883L296.23418802792054 296.16474520383883Z " fill="#ffffff" transform="matrix(0.7579216318408009,0,0,0.7579216318408009,0,31.837024343842245)"/><path d="M631.9737054857693 397.4278101714986L585.399833161075 397.4278101714986Q583.5873524154342 397.4278101714986 582.6008122627436 396.3494988418135Q581.5913293158044 395.2711875121285 581.5913293158044 393.619306326228L581.5913293158044 393.619306326228L581.5913293158044 285.7652305634753Q581.5913293158044 283.9527498178345 582.6008122627436 282.87443848814945Q583.5873524154342 281.7961271584644 585.399833161075 281.7961271584644L585.399833161075 281.7961271584644L630.665966213598 281.7961271584644Q643.0550751078517 281.7961271584644 650.9015107408791 285.83405894622115Q658.7479463739064 289.89493352822655 662.4646790421825 296.8236573913091Q666.1814117104586 303.77532404864036 666.1814117104586 312.35592909762346L666.1814117104586 312.35592909762346Q666.1814117104586 319.1240534009657 663.9559606683426 324.0108685759213Q661.707566831978 328.8747409566283 658.4038044601771 331.9261325916945Q655.1000420883761 334.97752422676064 651.9798220705641 336.62940541266113L651.9798220705641 336.62940541266113Q658.4038044601771 339.77256822472185 663.451219194873 346.8848344417933Q668.498633929569 353.9741578646163 668.498633929569 364.0689873340081L668.498633929569 364.0689873340081Q668.498633929569 373.1543338564608 664.3689309648178 380.7483987527534Q660.2392280000665 388.3424636490459 652.04865045331 392.88513691027225Q643.881015700802 397.4278101714986 631.9737054857693 397.4278101714986L631.9737054857693 397.4278101714986ZM597.7889420553287 343.9022711894731L597.7889420553287 384.0521611245543L629.8400256206478 384.0521611245543Q640.4166537692606 384.0521611245543 646.1982379199123 378.2705769739027Q651.9798220705641 372.48899282325095 651.9798220705641 364.0689873340081L651.9798220705641 364.0689873340081Q651.9798220705641 355.30483993103616 646.1982379199123 349.6150269573789Q640.4166537692606 343.9022711894731 629.8400256206478 343.9022711894731L629.8400256206478 343.9022711894731L597.7889420553287 343.9022711894731ZM597.7889420553287 295.1717762054086L597.7889420553287 330.68722170226914L628.1881444347473 330.68722170226914Q638.7647725833601 330.68722170226914 644.2022148202826 325.82334932156215Q649.6625998514537 320.93653414660656 649.6625998514537 312.5165286573637L649.6625998514537 312.5165286573637Q649.6625998514537 304.096523168121 644.2022148202826 299.6456210838892Q638.7647725833601 295.1717762054086 628.1881444347473 295.1717762054086L628.1881444347473 295.1717762054086L597.7889420553287 295.1717762054086ZM701.5362576475787 397.4278101714986L693.5980508375569 397.4278101714986Q691.9461696516564 397.4278101714986 690.8678583219714 396.3494988418135Q689.7895469922864 395.2711875121285 689.7895469922864 393.619306326228L689.7895469922864 393.619306326228L689.7895469922864 315.3384923499438Q689.7895469922864 313.6866111640433 690.8678583219714 312.6082998343582Q691.9461696516564 311.52998850467316 693.5980508375569 311.52998850467316L693.5980508375569 311.52998850467316L701.5362576475787 311.52998850467316Q703.1881388334792 311.52998850467316 704.2435073689156 312.6082998343582Q705.3218186986007 313.6866111640433 705.3218186986007 315.3384923499438L705.3218186986007 315.3384923499438L705.3218186986007 393.619306326228Q705.3218186986007 395.2711875121285 704.2435073689156 396.3494988418135Q703.1881388334792 397.4278101714986 701.5362576475787 397.4278101714986L701.5362576475787 397.4278101714986ZM702.6833973600096 295.51591811913795L692.2673687711372 295.51591811913795Q690.6154875852367 295.51591811913795 689.5601190498002 294.43760678945284Q688.4818077201152 293.35929545976785 688.4818077201152 291.70741427386736L688.4818077201152 291.70741427386736L688.4818077201152 282.782667311155Q688.4818077201152 281.13078612525453 689.5601190498002 279.98364641282365Q690.6154875852367 278.81356390614405 692.2673687711372 278.81356390614405L692.2673687711372 278.81356390614405L702.6833973600096 278.81356390614405Q704.3352785459101 278.81356390614405 705.482418258341 279.98364641282365Q706.6525007650205 281.13078612525453 706.6525007650205 282.782667311155L706.6525007650205 282.782667311155L706.6525007650205 291.70741427386736Q706.6525007650205 293.35929545976785 705.482418258341 294.43760678945284Q704.3352785459101 295.51591811913795 702.6833973600096 295.51591811913795L702.6833973600096 295.51591811913795ZM772.2230067275705 399.0796913573991L772.2230067275705 399.0796913573991Q762.3117196121675 399.0796913573991 755.7041948685655 395.52355824886325Q749.0966701249636 391.9674251403275 745.1275667199527 386.6905824631454L745.1275667199527 386.6905824631454L745.1275667199527 393.619306326228Q745.1275667199527 395.2711875121285 744.0721981845163 396.3494988418135Q742.9938868548313 397.4278101714986 741.3420056689308 397.4278101714986L741.3420056689308 397.4278101714986L733.7479407726382 397.4278101714986Q732.0960595867377 397.4278101714986 731.0177482570527 396.3494988418135Q729.9394369273678 395.2711875121285 729.9394369273678 393.619306326228L729.9394369273678 393.619306326228L729.9394369273678 283.9527498178345Q729.9394369273678 282.300868631934 731.0177482570527 281.222557302249Q732.0960595867377 280.1442459725639 733.7479407726382 280.1442459725639L733.7479407726382 280.1442459725639L741.8238043481517 280.1442459725639Q743.4756855340522 280.1442459725639 744.4851684809914 281.222557302249Q745.4717086336819 282.300868631934 745.4717086336819 283.9527498178345L745.4717086336819 283.9527498178345L745.4717086336819 321.94601709354566Q749.6014115984332 316.80683118185533 756.1171651650407 313.34246925031397Q762.6558615258969 309.8781073187728 772.2230067275705 309.8781073187728L772.2230067275705 309.8781073187728Q781.4689528097634 309.8781073187728 788.0076491706195 313.0900985135792Q794.523402737227 316.3250325026343 798.7448768789727 321.94601709354566Q802.9434082264697 327.54405889020853 805.1000308858399 334.65632510728Q807.2566535452099 341.7685913243516 807.5778526646907 349.52325578038443L807.5778526646907 349.52325578038443Q807.738452224431 352.16167711897543 807.738452224431 354.4788993380859Q807.738452224431 356.7961215571963 807.5778526646907 359.4345428957874L807.5778526646907 359.4345428957874Q807.2566535452099 367.3727497058091 805.1000308858399 374.4620731286321Q802.9434082264697 381.57433934570366 798.7448768789727 387.1035527596205Q794.523402737227 392.6327661735374 788.0076491706195 395.8677001625926Q781.4689528097634 399.0796913573991 772.2230067275705 399.0796913573991ZM768.7586447960291 385.7040423104548L768.7586447960291 385.7040423104548Q777.3392498450122 385.7040423104548 782.2260650199678 381.9873096421787Q787.0899374006749 378.2705769739027 789.2465600600449 372.2366220865161Q791.3802399251664 366.2026671991296 791.7243818388956 359.273943336047L791.7243818388956 359.273943336047Q791.884981398636 354.4788993380859 791.7243818388956 349.6838553401247L791.7243818388956 349.6838553401247Q791.3802399251664 342.7551314770421 789.2465600600449 336.7211765896556Q787.0899374006749 330.68722170226914 782.2260650199678 326.97048903399303Q777.3392498450122 323.2537563657169 768.7586447960291 323.2537563657169L768.7586447960291 323.2537563657169Q761.0039803399962 323.2537563657169 755.8647944283059 326.90166065124714Q750.7485513108641 330.52662214252877 748.2019011492675 336.1476067334402Q745.6323081934223 341.7685913243516 745.4717086336819 347.5501754750033L745.4717086336819 347.5501754750033Q745.3111090739417 350.1885968135943 745.3111090739417 353.9053294818704Q745.3111090739417 357.6220621501465 745.4717086336819 360.26048348873763L745.4717086336819 360.26048348873763Q745.7929077531626 366.36326675887 748.2019011492675 372.2366220865161Q750.5879517511238 378.1099774141623 755.6353664858198 381.8955384651843Q760.659838426267 385.7040423104548 768.7586447960291 385.7040423104548ZM839.7895357897501 397.4278101714986L832.0348713337173 397.4278101714986Q830.3829901478168 397.4278101714986 829.3046788181317 396.3494988418135Q828.2263674884467 395.2711875121285 828.2263674884467 393.619306326228L828.2263674884467 393.619306326228L828.2263674884467 283.9527498178345Q828.2263674884467 282.300868631934 829.3046788181317 281.222557302249Q830.3829901478168 280.1442459725639 832.0348713337173 280.1442459725639L832.0348713337173 280.1442459725639L839.7895357897501 280.1442459725639Q841.6020165353909 280.1442459725639 842.5885566880816 281.222557302249Q843.5980396350207 282.300868631934 843.5980396350207 283.9527498178345L843.5980396350207 283.9527498178345L843.5980396350207 393.619306326228Q843.5980396350207 395.2711875121285 842.5885566880816 396.3494988418135Q841.6020165353909 397.4278101714986 839.7895357897501 397.4278101714986L839.7895357897501 397.4278101714986ZM902.5610208539686 399.0796913573991L902.5610208539686 399.0796913573991Q885.3768679617538 399.0796913573991 875.3049812866107 388.59483438578064Q865.2330946114673 378.1099774141623 864.2465544587767 359.9392843692569L864.2465544587767 359.9392843692569Q864.0630121047877 357.7826617098869 864.0630121047877 354.3871281610914Q864.0630121047877 351.01453740654455 864.2465544587767 348.85791474717445L864.2465544587767 348.85791474717445Q864.8889526977381 337.13414688613074 869.6839966956993 328.3011711004129Q874.4790406936604 319.46819531469504 882.8302178001572 314.6731513167338Q891.1584521124055 309.8781073187728 902.4004212942284 309.8781073187728L902.4004212942284 309.8781073187728Q914.9501297482223 309.8781073187728 923.4619064144595 315.15494999595484Q931.9736830806967 320.45473546738555 936.4245851649287 330.2054230230481Q940.8754872491605 339.9331677844621 940.8754872491605 352.9876177119257L940.8754872491605 352.9876177119257L940.8754872491605 355.80958140450576Q940.8754872491605 357.6220621501465 939.8201187137241 358.60860230283714Q938.741807384039 359.59514245552765 937.0899261981385 359.59514245552765L937.0899261981385 359.59514245552765L879.9394257248314 359.59514245552765Q879.9394257248314 359.755742015268 879.9394257248314 360.26048348873763Q879.9394257248314 360.7652249622071 879.9394257248314 361.08642408168777L879.9394257248314 361.08642408168777Q880.260624844312 367.8545483850301 882.8990461829031 373.7279037126763Q885.5374675214941 379.5783162460738 890.5848822561901 383.22622053160404Q895.6322969908861 386.85118202288567 902.4004212942284 386.85118202288567L902.4004212942284 386.85118202288567Q908.3426050046203 386.85118202288567 912.3117084096311 385.0387012772449Q916.2808118146421 383.22622053160404 918.7586335934928 381.00076948948816Q921.2364553723436 378.7523756531236 922.0623959652938 377.44463638095243L922.0623959652938 377.44463638095243Q923.5307347972055 375.4486132813226 924.3566753901556 375.03564298484747Q925.182615983106 374.62267268837235 927.0180395229953 374.62267268837235L927.0180395229953 374.62267268837235L935.0939030985089 374.62267268837235Q936.585184724669 374.62267268837235 937.663496054354 375.5403844583171Q938.741807384039 376.4580962282618 938.5812078242986 378.1099774141623L938.5812078242986 378.1099774141623Q938.3976654703097 380.58779919301304 935.9198436914589 384.1209895073002Q933.4420219126084 387.6771226158359 928.8993486513818 391.1414845473773Q924.3566753901556 394.62878927316723 917.6803222638079 396.8542403152831Q910.9810263432114 399.0796913573991 902.5610208539686 399.0796913573991ZM879.9394257248314 347.71077503474356L879.9394257248314 348.1925737139646L925.182615983106 348.1925737139646L925.182615983106 347.71077503474356Q925.182615983106 340.27730969819146 922.475366261769 334.49572554753973Q919.7451737461835 328.714141396888 914.6289306287416 325.31860784809254Q909.4897447170513 321.94601709354566 902.4004212942284 321.94601709354566L902.4004212942284 321.94601709354566Q895.2881550771567 321.94601709354566 890.2636831367095 325.31860784809254Q885.2162684020135 328.714141396888 882.5778470634225 334.49572554753973Q879.9394257248314 340.27730969819146 879.9394257248314 347.71077503474356L879.9394257248314 347.71077503474356ZM1006.468936005959 399.0796913573991L1006.468936005959 399.0796913573991Q992.5885454855452 399.0796913573991 982.5854871931479 394.1240477996976Q972.605371694999 389.16840424199614 967.2367578408225 379.00474638985844Q961.8681439866459 368.8410885377206 961.8681439866459 352.8270181521854L961.8681439866459 352.8270181521854L961.8681439866459 285.7652305634753Q961.8681439866459 283.9527498178345 962.8546841393364 282.87443848814945Q963.841224292027 281.7961271584644 965.6537050376678 281.7961271584644L965.6537050376678 281.7961271584644L974.0966533211592 281.7961271584644Q975.9091340668 281.7961271584644 976.9874453964851 282.87443848814945Q978.0428139319215 283.9527498178345 978.0428139319215 285.7652305634753L978.0428139319215 285.7652305634753L978.0428139319215 353.14821727166606Q978.0428139319215 369.34583001119023 985.6598216224627 377.1004944672231Q993.253886518755 384.87810171750453 1006.468936005959 384.87810171750453L1006.468936005959 384.87810171750453Q1019.5233859334226 384.87810171750453 1027.186279212461 377.1004944672231Q1034.872115285748 369.34583001119023 1034.872115285748 353.14821727166606L1034.872115285748 353.14821727166606L1034.872115285748 285.7652305634753Q1034.872115285748 283.9527498178345 1035.9504266154331 282.87443848814945Q1037.028737945118 281.7961271584644 1038.6806191310186 281.7961271584644L1038.6806191310186 281.7961271584644L1047.2612241800016 281.7961271584644Q1048.913105365902 281.7961271584644 1049.991416695587 282.87443848814945Q1051.069728025272 283.9527498178345 1051.069728025272 285.7652305634753L1051.069728025272 285.7652305634753L1051.069728025272 352.8270181521854Q1051.069728025272 368.8410885377206 1045.7011141710957 379.00474638985844Q1040.332500316919 389.16840424199614 1030.4212132015161 394.1240477996976Q1020.5099260861132 399.0796913573991 1006.468936005959 399.0796913573991ZM1088.558253827514 428.81355270360785L1080.4594474577516 428.81355270360785Q1078.807566271851 428.81355270360785 1077.752197736415 427.73524137392286Q1076.6738864067297 426.65693004423775 1076.6738864067297 425.00504885833726L1076.6738864067297 425.00504885833726L1076.6738864067297 315.3384923499438Q1076.6738864067297 313.6866111640433 1077.752197736415 312.6082998343582Q1078.807566271851 311.52998850467316 1080.4594474577516 311.52998850467316L1080.4594474577516 311.52998850467316L1088.076455148293 311.52998850467316Q1089.7283363341935 311.52998850467316 1090.7837048696297 312.6082998343582Q1091.862016199315 313.6866111640433 1091.862016199315 315.3384923499438L1091.862016199315 315.3384923499438L1091.862016199315 322.58841533250705Q1095.8311196043257 317.15097309558456 1102.4386443479275 313.50306881005434Q1109.0461690915295 309.8781073187728 1118.9574562069324 309.8781073187728L1118.9574562069324 309.8781073187728Q1128.2034022891255 309.8781073187728 1134.7420986499817 313.02127013083333Q1141.257852216589 316.16443294289405 1145.4793263583347 321.60187517981643Q1149.6778577058317 327.0622602109875 1151.834480365202 333.9909840740701Q1153.9681602303235 340.94265073140133 1154.3123021440526 348.85791474717445L1154.3123021440526 348.85791474717445Q1154.472901703793 351.49633608576556 1154.472901703793 354.4788993380859Q1154.472901703793 357.46146259040626 1154.3123021440526 360.09988392899726L1154.3123021440526 360.09988392899726Q1153.9681602303235 367.8545483850301 1151.834480365202 374.8750434251072Q1149.6778577058317 381.8955384651843 1145.4793263583347 387.2641523193608Q1141.257852216589 392.6327661735374 1134.7420986499817 395.8677001625926Q1128.2034022891255 399.0796913573991 1118.9574562069324 399.0796913573991L1118.9574562069324 399.0796913573991Q1109.3673682110102 399.0796913573991 1102.8516146444028 395.52355824886325Q1096.3358610777955 391.9674251403275 1092.2061581130442 386.6905824631454L1092.2061581130442 386.6905824631454L1092.2061581130442 425.00504885833726Q1092.2061581130442 426.65693004423775 1091.1966751661048 427.73524137392286Q1090.2101350134144 428.81355270360785 1088.558253827514 428.81355270360785L1088.558253827514 428.81355270360785ZM1115.4930942753913 385.7040423104548L1115.4930942753913 385.7040423104548Q1124.0736993243745 385.7040423104548 1128.9605144993297 381.9873096421787Q1133.8243868800369 378.2705769739027 1135.981009539407 372.2366220865161Q1138.1146894045287 366.2026671991296 1138.4588313182576 359.273943336047L1138.4588313182576 359.273943336047Q1138.6194308779982 354.4788993380859 1138.4588313182576 349.6838553401247L1138.4588313182576 349.6838553401247Q1138.1146894045287 342.7551314770421 1135.981009539407 336.7211765896556Q1133.8243868800369 330.68722170226914 1128.9605144993297 326.97048903399303Q1124.0736993243745 323.2537563657169 1115.4930942753913 323.2537563657169L1115.4930942753913 323.2537563657169Q1107.394287905629 323.2537563657169 1102.3468731709331 327.0622602109875Q1097.3224012304859 330.8478212620094 1094.913407834381 336.7211765896556Q1092.5273572325245 342.5945319173018 1092.2061581130442 348.6973151874342L1092.2061581130442 348.6973151874342Q1092.022615759055 351.3357365260252 1092.022615759055 354.9836408115555Q1092.022615759055 358.60860230283714 1092.2061581130442 361.4076232011685L1092.2061581130442 361.4076232011685Q1092.3667576727844 367.18920735182024 1094.913407834381 372.8101919427316Q1097.483000790226 378.43117653364294 1102.599243907668 382.05613802492456Q1107.7154870251097 385.7040423104548 1115.4930942753913 385.7040423104548Z " fill="#4884ee" transform="matrix(0.7579216318408009,0,0,0.7579216318408009,0,31.837024343842245)"/></g></svg>